<?xml version="1.0" encoding="UTF-8"?>
<svg id="Capa_2" data-name="Capa 2" xmlns="http://www.w3.org/2000/svg" viewBox="0 0 191.72 136.14">
  <defs>
    <style>
      .cls-1 {
        fill: #fff;
      }
    </style>
  </defs>
  <g id="Capa_1-2" data-name="Capa 1">
    <g>
      <path class="cls-1" d="M95.39,0c-23.78,0-43.06,19.27-43.06,43.03s19.28,43.03,43.06,43.03,43.06-19.27,43.06-43.03S119.17,0,95.39,0ZM65.2,16.86C79.9-.18,105.9-1.7,122.43,13.65c7.83,7.27,12.93,17.63,12.9,28.57-.02,8.61-6.09,15.83-14.1,18.3-5.09,1.57-10.28,1.54-15.35.17-5.79-1.56-9.96-6.07-11.26-11.88-2.49-11.18,5.08-23.26,10.72-20.69.87.39,1.27,1.31,1.03,2.19-.42,1.57.46,2.94,1.98,3.36,3.19.87,5.78-1.82,6.4-5.55,1.04-6.18-1.53-12.18-6.44-15.86-6.88-5.15-16.39-3.91-21.87,2.61-6.89-1.25-12.85,2.92-13.4,9.8-3.67,1.48-5.22,5.01-4.66,9.12-2.5.95-3.91,3.13-4.06,5.78-.1,1.75-.81,3.46-1.98,4.79-1.16,1.31-4.2.65-6.89,2.16-.99-10.84,2.69-21.5,9.72-29.65ZM94.15,23.43c.58,1.52-.19,2.8-1.68,3.31-1.05.37-1.06,3.04-3.37,3.22-.95.07-1.9-.54-2.28-1.68,2.37-.23,3.81-2.03,3.96-4.21.15-2.3-1.57-4.16-3.98-4.46-2.64-.33-5.08.96-6.61,3.09-1.72,2.38-2.25,5.29-1.03,8.23-3.82.29-7.9,4.43-5.74,5.85.69.46,1.64.28,2.11-.47,1.05-1.7,2.74-2.56,4.62-2.57,1.82-.01,3.64.84,4.63,2.51,1.25,2.11.69,4.92-1.52,6.05-2.15,1.09-.37,3.26-2.52,3.93.29-2.88-1.12-5.36-3.83-5.94-1.2-1.43-2.84-2.08-4.71-2.12-.9-.11-1.69.49-1.74,1.29-.14,2.34,3.04,1.02,4.2,2.98.67,1.12.17,2.46-.91,3.06-.9.5-1.35,1.29-1.68,2.41-.55-2.76-3.41-4.03-6.29-3.12,2.1-3.72.34-7.07,3.83-8.28,1.59-.56,2.01-1.9,1.68-3.48-.49-2.42.65-5.01,3.01-5.68.98-.28,1.69-.78,1.66-1.89-.12-3.67,2.35-6.76,5.93-7.61,3.34-.79,4.86.84,6.39-.68l1.7-1.68c2.35-.69,4.76.22,6.2,2.11.36.48.56,1.49.45,2.07-.31,1.55-3.34,1.54-2.47,3.79ZM55.96,49.63c1.96-1.35,4.2-1.65,6.47-.99,2.49.73,3.91,3.32,2.94,5.78-.4.99-1.79,1.43-2.72.49,1.28-1.35,1.52-3.24.22-4.56-1.89-1.92-4.85-1.59-6.7.42l-.2-1.14ZM57.96,56.53c-.35-1.07-.3-2.42.06-3.36.45-1.19,1.88-1.53,2.79-.7-1.48,1.53-1.24,3.67.4,5,2.23,1.8,5.65.82,6.85-1.88,1.16-2.61.53-5.67-1.54-7.8.75-.78,2.14-.41,2.7.4-.07,1.28-1.34,2.3-.08,3.61.47.48,1.37.78,2.07.7,2.49-.25,3.34-2.34,4.09-4.31.84-.95,2.12-1.9,2.42-3.35l.23,2.43c.12,1.2,1.41,2.02,2.55,2.02,2.56,0,4.38-2.02,4.4-4.56,2.38-1.45,3.56-3.96,3.38-6.71-.16-2.5-1.71-4.98-4.22-6.14-1.62-.75-2.5-1.87-2.64-3.77-.2-2.8,1.71-5.56,4.66-5.63.88-.02,1.68.46,1.8,1.13.43,2.49-3.24,1.08-3.75,3.83-.36,1.97.65,3.94,2.46,4.84,2.93,1.45,6.31.1,7.5-2.98,2.27-1.07,3.45-3.27,3-5.87,1.71-1.15,2.85-3.1,2.36-5.23-.61-2.64-2.62-4.52-5.22-5.36,3.75-1.47,7.59-1.05,10.96.86,5.15,2.92,7.9,8.74,6.62,14.51-.29,1.3-.93,2.44-2.39,2.66.34-2.76-1.21-5.01-3.79-5.73-5.29-1.45-9.66,3.34-11.92,8.18-3.41,7.32-3.42,16.25.91,22.79-1.91-.56-3.5-.75-5.21-.83-2.39-2.97-1.57-6.96-3.91-6.53-.71.13-1.45.92-1.14,1.78l1.84,5.17-3.76,1.85c-1.37-1.77-2.27-3.93-2.76-6.19-.16-.73-.85-1.24-1.47-1.23-.65.01-1.52.63-1.41,1.35.44,2.97,1.52,5.41,3.3,7.89l-2.81,2.44c-2.11-1.57-3.41-3.66-4.08-6.18-.23-.86-.9-1.35-1.79-1.16-2.69.56.57,6.42,3.14,9.05l-3.62,1.28c-1.47-1.29-2.65-2.65-3.52-4.37-.4-.8-1.1-1.23-1.83-1-.78.25-1.44,1.26-.95,2.05l2.25,3.64c-5.86-.65-7.11-2.95-8.94-8.57ZM93.46,83.03c-11.66-.58-22.39-6.26-29.56-15.46,7.34,1.78,13.58-1.48,18.81-6.62,3.48-3.03,7.86-3.52,11.86-1.59l3.63,1.76c7.4,3.62,15.75,4.56,23.68,2.29,4.67-1.33,8.45-4.01,11.53-7.82-5.73,16.96-22.1,28.33-39.95,27.44Z"/>
      <g>
        <g>
          <polygon class="cls-1" points="105.77 135.87 103.66 135.97 98.46 129.55 98.48 135.92 96.05 135.96 96 125.39 98.11 125.4 103.29 131.72 103.35 125.37 105.72 125.37 105.77 135.87"/>
          <polygon class="cls-1" points="83.43 135.91 80.95 135.95 80.92 131.56 76.29 131.57 76.22 135.92 73.77 135.91 73.76 125.37 76.25 125.36 76.23 129.4 80.95 129.43 80.93 125.36 83.42 125.34 83.43 135.91"/>
          <path class="cls-1" d="M123.73,135.92l-2.96.03-3.27-4.16c-1.71,1.23-1.47,1.99-1.41,4.12l-2.45.05v-10.61s2.44,0,2.44,0l.02,4.88,4.62-4.93,2.68.07-4.22,4.71,4.55,5.85Z"/>
          <polygon class="cls-1" points="135.11 135.88 132.12 135.89 128.95 131.76 127.56 133.15 127.52 135.97 125.04 135.89 125.05 125.35 127.52 125.34 127.55 130.22 132.08 125.35 134.84 125.36 130.58 130.07 135.11 135.88"/>
          <polygon class="cls-1" points="143.84 131.46 138.94 131.45 138.94 133.94 144.73 133.95 144.74 135.94 136.5 135.94 136.49 125.35 144.48 125.34 144.48 127.34 138.98 127.32 138.96 129.57 143.78 129.57 143.84 131.46"/>
          <path class="cls-1" d="M61.27,125.35l-.12,6.9c-.03,1.45-.96,2.78-2.25,3.36-1.84.82-4.1.73-5.72-.57-.92-.74-1.4-2.23-1.4-3.4v-6.29s2.46,0,2.46,0v6.26c0,1.45.94,2.4,2.26,2.39s2.27-.93,2.27-2.4v-6.25s2.5,0,2.5,0Z"/>
          <path class="cls-1" d="M48.07,135.62c-2.3.92-4.68.55-6.86-.62l.84-2.04c2.41,1.77,5.61,1.34,5.43,0-.04-.29-.51-.78-.8-.86l-2.88-.77c-1.28-.34-2.19-1.18-2.34-2.29-.19-1.35.29-2.6,1.58-3.25,2.01-1.01,4.45-.76,6.41.35l-.69,1.86c-2-.93-4.48-1.17-4.88.12-.1.32.33,1.06.68,1.15l2.9.77c1.34.36,2.33,1.2,2.45,2.44s-.44,2.58-1.83,3.14Z"/>
          <path class="cls-1" d="M70.13,135.54c-2.31,1.04-4.98.66-7.06-.65l.88-1.92c2.4,1.74,5.61,1.37,5.44,0-.23-1.89-6.61-.44-6.02-5.1.35-2.72,4.94-3.59,7.99-1.69l-.76,1.85c-2.31-1.12-4.85-1.04-4.91.33-.01.3.48.84.78.92l3.08.84c1.27.35,2.18,1.22,2.27,2.36.09,1.2-.38,2.47-1.7,3.07Z"/>
          <rect class="cls-1" x="86.04" y="125.33" width="2.5" height="10.64"/>
          <rect class="cls-1" x="104.35" y="129.4" width="10.64" height="2.51" transform="translate(-21.02 240.29) rotate(-89.99)"/>
          <rect class="cls-1" x="146.86" y="125.33" width="2.5" height="10.64"/>
        </g>
        <g>
          <polygon class="cls-1" points="165.32 97.51 170.14 97.45 163.34 118.18 158.01 118.19 153.45 104.41 148.89 118.2 143.6 118.19 136.72 97.47 141.76 97.43 146.49 111.79 151.21 97.47 155.86 97.43 160.59 111.99 165.32 97.51"/>
          <polygon class="cls-1" points="66.48 118.08 62.43 118.23 52.12 105.7 52.1 118.2 47.3 118.19 47.3 97.45 51.43 97.47 61.61 109.82 61.66 97.47 66.47 97.45 66.48 118.08"/>
          <polygon class="cls-1" points="19.96 118.12 14.16 118.23 7.66 110.02 4.84 112.93 4.91 118.19 0 118.19 0 97.46 4.91 97.44 4.85 106.94 13.78 97.46 19.38 97.5 10.89 106.6 19.96 118.12"/>
          <path class="cls-1" d="M134.19,107.91l-4.7-10.47h-5.14s-9.19,20.72-9.19,20.72l5.01.05,1.82-4.41h9.82s1.87,4.43,1.87,4.43l5.18-.09-4.67-10.23ZM123.69,109.92l3.2-7.68,3.24,7.65-6.44.03Z"/>
          <path class="cls-1" d="M35.34,97.43l-5.09.02-9.23,20.73,5.04.02,1.83-4.4h9.78s1.91,4.41,1.91,4.41l5.17-.03-9.41-20.75ZM29.57,109.89l3.22-7.69,3.2,7.71-6.42-.02Z"/>
          <path class="cls-1" d="M108.29,107.49h4.68s0,8.35,0,8.35c-3.62,2.55-8.18,3.43-12.43,2.1-4.72-1.47-7.67-5.79-7.38-10.69.4-6.68,5.84-10.5,12.35-10.14,2.98.17,5.67,1.3,7.75,3.56l-3.2,2.94c-2.67-2.73-7.08-3.21-9.95-.63-3.05,2.75-2.61,7.91.73,10.2,2.3,1.58,5.15,1.4,7.49.22l-.03-5.93Z"/>
          <path class="cls-1" d="M182.36,97.48l-5.13-.02-9.16,20.71,5.02.04,1.8-4.41,9.81.02,1.8,4.38h5.23s-9.36-20.72-9.36-20.72ZM176.56,109.91l3.24-7.65,3.19,7.62-6.42.02Z"/>
          <path class="cls-1" d="M83.42,97.46h-5.12s-9.2,20.72-9.2,20.72l5.04.02,1.82-4.39h9.76s1.86,4.42,1.86,4.42l5.23-.05-9.38-20.71ZM77.61,109.89l3.21-7.61,3.29,7.63-6.5-.02Z"/>
        </g>
      </g>
    </g>
  </g>
</svg>